<?xml version="1.0" encoding="UTF-8" standalone="no"?>
<!-- Created with Inkscape (http://www.inkscape.org/) -->

<svg
   xmlns:dc="http://purl.org/dc/elements/1.1/"
   xmlns:cc="http://creativecommons.org/ns#"
   xmlns:rdf="http://www.w3.org/1999/02/22-rdf-syntax-ns#"
   xmlns:svg="http://www.w3.org/2000/svg"
   xmlns="http://www.w3.org/2000/svg"
   xmlns:sodipodi="http://sodipodi.sourceforge.net/DTD/sodipodi-0.dtd"
   xmlns:inkscape="http://www.inkscape.org/namespaces/inkscape"
   width="210mm"
   height="297mm"
   viewBox="0 0 744.09448819 1052.3622047"
   id="svg2"
   version="1.1"
   inkscape:version="0.91 r13725"
   sodipodi:docname="logo-a.svg">
  <defs
     id="defs4" />
  <sodipodi:namedview
     id="base"
     pagecolor="#ffffff"
     bordercolor="#666666"
     borderopacity="1.0"
     inkscape:pageopacity="0.0"
     inkscape:pageshadow="2"
     inkscape:zoom="1.979899"
     inkscape:cx="55.655105"
     inkscape:cy="874.2732"
     inkscape:document-units="px"
     inkscape:current-layer="layer1"
     showgrid="false"
     inkscape:window-width="1920"
     inkscape:window-height="1017"
     inkscape:window-x="-8"
     inkscape:window-y="-8"
     inkscape:window-maximized="1" />
  <metadata
     id="metadata7">
    <rdf:RDF>
      <cc:Work
         rdf:about="">
        <dc:format>image/svg+xml</dc:format>
        <dc:type
           rdf:resource="http://purl.org/dc/dcmitype/StillImage" />
        <dc:title />
      </cc:Work>
    </rdf:RDF>
  </metadata>
  <g
     inkscape:label="Layer 1"
     inkscape:groupmode="layer"
     id="layer1"
     style="opacity:1">
    <g
       transform="scale(0.99397829,1.0060582)"
       style="font-style:normal;font-variant:normal;font-weight:normal;font-stretch:normal;font-size:43.37307739px;line-height:125%;font-family:'Noto Serif';-inkscape-font-specification:'Noto Serif';letter-spacing:0px;word-spacing:0px;fill:#e40c0c;fill-opacity:1;stroke:none;stroke-width:1px;stroke-linecap:butt;stroke-linejoin:miter;stroke-opacity:1"
       id="text4148">
      <path
         d="m 34.081155,45.554802 q -1.620137,0 -2.731995,-0.571813 -1.111859,-0.571813 -1.842509,-1.4613 -0.73065,-0.921255 -1.143627,-2.033114 -0.381208,-1.143626 -0.540045,-2.255485 l -0.254139,0 q -0.73065,1.493068 -1.683672,2.763764 -0.921255,1.270696 -2.128416,2.223717 -1.207161,0.921255 -2.731996,1.429533 -1.524835,0.540046 -3.430878,0.540046 -3.208507,0 -5.686364,-1.048324 Q 9.4296574,44.061734 7.7459855,41.869784 6.0623136,39.646067 5.204594,36.246955 4.3468743,32.847844 4.3468743,28.178037 q 0,-4.701574 1.0165566,-8.132453 1.0165567,-3.430878 2.8590655,-5.654596 1.8742766,-2.223718 4.5109696,-3.272042 2.636694,-1.080091 5.845201,-1.080091 1.906044,0 3.430879,0.508278 1.524835,0.476511 2.700228,1.397766 1.207161,0.889487 2.096648,2.160182 0.889487,1.238929 1.524835,2.763764 l 0.412976,0 q 0.540046,-1.715439 1.365998,-3.335577 0.825952,-1.651904 1.810742,-2.859065 l 3.462646,0 q -0.285907,0.953022 -0.603581,2.509624 -0.317674,1.524835 -0.571813,3.303809 -0.222372,1.778974 -0.381209,3.621483 -0.158837,1.842509 -0.158837,3.399111 l 0,13.278771 q 0,2.890833 1.365998,4.479203 1.397766,1.556602 3.970925,1.556602 l 0.540045,0 0,2.731996 -5.463992,0 z M 18.705737,42.028621 q 2.541391,0 4.225063,-1.270696 1.715439,-1.270695 2.731996,-3.494413 1.048324,-2.255485 1.4613,-5.273387 0.444744,-3.017903 0.444744,-6.544084 l 0,-2.541391 q -0.444744,-2.350787 -1.270696,-4.002692 -0.794185,-1.683672 -1.874276,-2.731996 -1.080092,-1.080091 -2.382555,-1.58837 -1.270696,-0.508278 -2.668461,-0.508278 -4.542738,0 -6.639386,3.589716 -2.096648,3.557948 -2.096648,10.578542 0,6.925292 1.874277,10.356171 1.874276,3.430878 6.194642,3.430878 z"
         style="font-style:normal;font-variant:normal;font-weight:normal;font-stretch:normal;font-size:65.05962372px;font-family:'Noto Serif';-inkscape-font-specification:'Noto Serif';fill:#e40c0c;fill-opacity:1"
         id="path4704" />
    </g>
  </g>
</svg>
